# xmcd
#
# Track frame offsets:
#	150
#	15998
#	25872
#	37659
#	52737
#	65368
#	76522
#	88920
#	100612
#	112242
#	125936
#	139198
#	154380
#	167127
#	180869
#	206224
#
# Disc length: 2764 seconds
#
# Revision: 1
# Processed by: cddbd v1.5.2PL0 Copyright (c) Steve Scherf et al.
# Submitted via: audiograbber 1.83.01
#
DISCID=c80aca10
DTITLE=Georger Jones - Chartbuster
DYEAR=1900
DGENRE=Country
TTITLE0=Old Rugged Cross "The"
TTITLE1=Love bug
TTITLE2=High Tec
TTITLE3=Right Left Hand
TTITLE4=She Thinks I Still Care
TTITLE5=Walk Through This World With Me
TTITLE6=Door  "The"
TTITLE7=Honky-Tonk Myself To Death
TTITLE8=She's My Rock
TTITLE9=Writing On The Wall
TTITLE10=Take Me
TTITLE11=She Loved A lot In Her Time
TTITLE12=Once You've Had The Best
TTITLE13=When The Grass Grows Over Me
TTITLE14=The Window Up Above
TTITLE15=na
EXTD=
EXTT0=
EXTT1=
EXTT2=
EXTT3=
EXTT4=
EXTT5=
EXTT6=
EXTT7=
EXTT8=
EXTT9=
EXTT10=
EXTT11=
EXTT12=
EXTT13=
EXTT14=
EXTT15=
PLAYORDER=
